<?xml version="1.0" encoding="utf-8"?>
<!-- Generator: Adobe Illustrator 19.0.0, SVG Export Plug-In . SVG Version: 6.00 Build 0)  -->
<svg version="1.1" id="Camada_1" xmlns="http://www.w3.org/2000/svg" xmlns:xlink="http://www.w3.org/1999/xlink" x="0px" y="0px"
	 viewBox="-67 198 214 56" style="enable-background:new -67 198 214 56;" xml:space="preserve">
<style type="text/css">
	.st0{fill:#0391BD;}
	.st1{fill:#1D2D42;}
</style>
<g>
	<path id="XMLID_3_" class="st0" d="M35.5,215.8v6.1c-0.5,0-0.8,0.2-1.3,0.2c-2.4,0-4.4-0.8-5.9-2.4c-1.5-1.5-2.4-3.5-2.4-5.9
		c0-2.2,0.8-4.2,2.4-5.7s3.5-2.4,5.7-2.4c2.5,0,4.5,0.7,6.1,2.2c1.5,1.5,2.2,3.5,2.2,6.1v7.7h-5.9v-7.2c0-0.8-0.2-1.5-0.7-2
		c-0.3-0.5-1-0.7-1.7-0.7s-1.2,0.2-1.7,0.7s-0.7,1-0.7,1.7s0.2,1.2,0.7,1.7c0.3,0.3,1,0.7,1.5,0.7C34.7,216.1,35.2,215.8,35.5,215.8
		z"/>
	<path id="XMLID_5_" class="st0" d="M55.5,214.3l5.9-0.3c-0.2,2.2-1,4-2.5,5.6c-1.5,1.5-3.4,2.2-5.6,2.2c-2.4,0-4.2-0.8-5.9-2.4
		c-1.5-1.7-2.4-3.5-2.4-5.9c0-2.2,0.8-4,2.4-5.7c1.7-1.5,3.5-2.4,5.7-2.4c2,0,3.7,0.7,5.2,1.9s2.4,2.9,2.9,4.7l-5.9,0.3
		c-0.5-0.7-1.2-1-2-1c-0.7,0-1.2,0.2-1.7,0.7s-0.7,1-0.7,1.7s0.2,1.2,0.7,1.7s1,0.7,1.7,0.7C54.2,216.1,55.1,215.6,55.5,214.3z"/>
	<path id="XMLID_7_" class="st0" d="M72.5,205.8v6.2c-0.3-0.2-0.8-0.3-1.2-0.3c-1,0-1.7,0.8-1.7,2.5v7.4h-5.9V213
		c0-2.2,0.7-4,1.9-5.4c1.2-1.3,2.9-2,4.9-2C71,205.6,71.8,205.6,72.5,205.8z"/>
	<path id="XMLID_9_" class="st0" d="M89.6,214.8h-8.9c-0.2-0.5-0.2-0.8-0.2-1.2c0-0.5,0.2-1,0.3-1.5h3c-0.2-1.2-0.8-1.7-2-1.7
		c-0.7,0-1.3,0.3-1.9,1c-0.5,0.7-0.7,1.3-0.7,2.4c0,1,0.2,1.9,0.7,2.5c0.5,0.7,1,1,1.7,1c0.5,0,1.2-0.3,1.7-0.8l3.4,4
		c-1.5,1.2-3.4,1.9-5.2,1.9c-2.4,0-4.2-0.8-5.9-2.4c-1.5-1.5-2.4-3.5-2.4-5.7c0-2.4,0.8-4.2,2.4-5.9c1.5-1.7,3.5-2.4,5.9-2.4
		c2.2,0,4.2,0.8,5.7,2.4c1.5,1.5,2.4,3.4,2.4,5.7C89.6,213.8,89.6,214.3,89.6,214.8z"/>
</g>
<g>
	<path id="XMLID_11_" class="st1" d="M36.1,236.8l5.8-0.2c-0.2,2.1-1,4-2.5,5.4c-1.5,1.5-3.3,2.1-5.4,2.1c-2.3,0-4.1-0.8-5.8-2.3
		c-1.5-1.6-2.3-3.5-2.3-5.8c0-2.1,0.8-4,2.3-5.6c1.6-1.5,3.5-2.3,5.6-2.3c2,0,3.6,0.7,5.1,1.8s2.3,2.8,2.8,4.6l-5.9,0.2
		c-0.5-0.7-1.2-1-2-1c-0.7,0-1.2,0.2-1.6,0.7c-0.5,0.5-0.7,1-0.7,1.6c0,0.7,0.2,1.2,0.7,1.6c0.5,0.5,1,0.7,1.6,0.7
		C34.9,238.5,35.6,238,36.1,236.8z"/>
	<path id="XMLID_13_" class="st1" d="M51.6,228.3c2.1,0,4,0.8,5.6,2.3c1.5,1.5,2.3,3.5,2.3,5.6s-0.8,4.1-2.3,5.6s-3.5,2.3-5.8,2.3
		c-2.1,0-4.1-0.8-5.8-2.3c-1.6-1.5-2.3-3.5-2.3-5.6c0-2.3,0.8-4.1,2.3-5.6C47.3,229,49.1,228.3,51.6,228.3z M51.4,234
		c-0.7,0-1.2,0.2-1.6,0.7c-0.5,0.5-0.7,1-0.7,1.6c0,0.7,0.2,1.2,0.7,1.6c0.5,0.5,1,0.7,1.5,0.7c0.7,0,1.2-0.2,1.6-0.7
		c0.5-0.5,0.7-1,0.7-1.6c0-0.7-0.2-1.2-0.7-1.6C52.6,234,51.9,234,51.4,234z"/>
	<path id="XMLID_16_" class="st1" d="M82.9,244h-5.8v-8.2c0-0.7,0-1.2-0.2-1.3c-0.2-0.2-0.3-0.3-0.7-0.3c-0.7,0-1,0.5-1,1.6v8.2
		h-5.8v-8.2c0-0.7,0-1.2-0.2-1.3c-0.2-0.2-0.3-0.3-0.7-0.3c-0.7,0-1,0.5-1,1.6v8.2h-5.8v-9.4c0-1.6,0.7-3.1,1.8-4.5
		c1.2-1.2,2.6-1.8,4.3-1.8c1.6,0,3.3,0.7,4.6,2.1c1.5-1.5,3-2.1,4.5-2.1c2,0,3.5,0.7,4.6,2.1c1,1.2,1.3,2.6,1.3,4.8L82.9,244
		L82.9,244C82.9,243.9,82.9,244,82.9,244z"/>
	<path id="XMLID_18_" class="st1" d="M91.7,249.6h-5.8v-12.9c0-2.3,0.7-4.3,1.8-5.8c0.7-0.8,1.6-1.5,2.6-2c1.2-0.5,2.1-0.8,3.3-0.8
		c2.3,0,4.3,0.8,5.8,2.3c1.6,1.5,2.3,3.5,2.3,5.6s-0.8,4.1-2.3,5.6s-3.5,2.3-5.6,2.3c-0.3,0-0.8,0-1.5-0.2v-6.3
		c0.5,0.3,1,0.5,1.5,0.5c0.7,0,1.2-0.2,1.5-0.7c0.5-0.5,0.7-1,0.7-1.6c0-0.7-0.2-1.2-0.7-1.5s-1-0.7-1.6-0.7c-1.5,0-2.1,1-2.1,3.1
		v12.9h0.1V249.6z"/>
	<path id="XMLID_20_" class="st1" d="M113,228.5v6.1c-0.3-0.2-0.8-0.3-1.2-0.3c-1,0-1.6,0.8-1.6,2.5v7.3h-5.8v-8.4
		c0-2.1,0.7-4,1.8-5.3c1.2-1.3,2.8-2,4.8-2C111.7,228.3,112.1,228.3,113,228.5z"/>
	<path id="XMLID_22_" class="st1" d="M123.2,238.3v5.9c-0.5,0-0.8,0.2-1.3,0.2c-2.3,0-4.3-0.8-5.8-2.3s-2.3-3.5-2.3-5.8
		c0-2.1,0.8-4.1,2.3-5.6s3.5-2.3,5.6-2.3c2.5,0,4.5,0.7,5.9,2.1c1.5,1.5,2.1,3.5,2.1,5.9v7.6h-5.8v-7.1c0-0.8-0.2-1.5-0.7-2
		c-0.3-0.5-1-0.7-1.6-0.7s-1.2,0.2-1.6,0.7c-0.5,0.5-0.7,1-0.7,1.6c0,0.7,0.2,1.2,0.7,1.6c0.5,0.5,1,0.7,1.5,0.7
		C122.2,238.5,122.7,238.3,123.2,238.3z"/>
	<path id="XMLID_24_" class="st1" d="M142.8,228.8v6.1c-0.8,0-1.3,0.2-1.6,0.5s-0.5,0.8-0.5,1.8c-0.3,3-1.5,5.1-3.5,6.3
		c-1.2,0.7-2.6,1-4.6,1h-0.8v-6.3h0.3c1,0,1.6-0.2,2-0.5s0.7-1,0.7-2c0-1.6,0.2-2.6,0.5-3.3s0.7-1.3,1.3-1.8
		c1.2-1.2,2.6-1.6,4.6-1.6h1.6V228.8z"/>
</g>
<path id="XMLID_2_" class="st0" d="M7.5,216.8c-2.2-1.6-3.4-2.4-4-2.6c-2.2-0.8-4.8-0.5-6-0.4c-0.1,0-0.1,0-0.1,0
	c-3.2,0.4-5.2,2-6,2.6c-1.7,1.3-2.5,2.7-2.8,3.2c-0.4,0.6-1.2,1.9-1.4,3.8c-0.3,1.8,0.1,3.2,0.4,4.4s0.8,3,2.2,4.6
	c1.4,1.7,3,2.4,4,2.8c1.6,0.7,3,0.9,4.2,1c1.5,0.2,2.6,0.3,4,0c1.8-0.4,3.1-1.3,3.6-1.6c1.1-0.7,1.2-1.1,2.2-1.6
	c0.5-0.3,1.5-0.7,2.8-0.8c0.3,0,1.7-0.1,3.2,0.8c0.5,0.3,2.9,1.7,3.2,4.4c0.3,2.2-1,3.9-1.6,4.6c-0.9,1.2-1.9,1.7-3.7,2.8
	c-0.5,0.3-2.1,1.2-4.4,2c-1.5,0.6-3.2,1.2-5.5,1.4c-1.7,0.1-3,0.1-4.2,0c-0.9-0.1-1.9-0.1-3.2-0.4c-0.6-0.1-1.5-0.4-2.8-0.8
	c-2.1-0.7-4-1.4-6-2.8c-1.8-1.3-3-2.6-3.7-3.6c-0.6-0.8-2.5-3.2-4-6.8c-0.6-1.6-1.9-4.9-1.8-9.4c0-0.6,0.1-3.7,1.4-7.3
	c1.1-3,2.4-5,2.8-5.5c0.6-0.9,1.7-2.4,3.6-4c1.3-1.1,2.4-1.7,3.4-2.2c2-1.1,3.7-1.7,4.2-1.8c2-0.6,3.7-0.9,5-1
	c1.2-0.1,2.4-0.3,4-0.2c1.9,0.1,3.2,0.4,4.2,0.6c1.2,0.3,2.6,0.6,4.4,1.4c1.5,0.6,2.4,1.4,4,2.4c1.2,0.8,1.8,1.4,2.4,2
	c0.6,0.7,1.2,1.3,1.4,2.2c0.3,1,0,1.9-0.2,2.6c-0.1,0.5-0.4,1.6-1.4,2.6c-0.2,0.2-1,1.1-2.4,1.6c-0.5,0.2-1.5,0.6-2.7,0.4
	C8.9,217.8,8.3,217.4,7.5,216.8z"/>
<path id="XMLID_2906_" class="st1" d="M-8.9,246.7c-0.4,0.1-0.9,0.3-1.3,0.4c-3.7,1.5-6.5,0.4-8.3-3.2c-3.7-7.6-7.5-15.3-11.2-22.9
	c-3.9-8-14.8-9.4-20.2-2.5c-3,3.9-3.2,8.6-0.4,12.9c2.6,4,7.8,6,12.4,4.9c1.2-0.3,2.3-0.7,3.5-1.1c1.1-0.2,2.2-0.3,3.2,0.1
	c3,1.2,4.7,3.3,4.5,5.9c-0.1,3.1-2.2,4.6-4.8,5.6c-14.6,5.5-29.2-2.4-32.8-17.8c-2-8.8,3.2-19,11.9-23.6c9.9-5.3,23-4.1,31.4,6
	c0.2,0.3,0.4,0.6,0.7,0.9c0.7,1,1.2,2,1.7,2.8c0.2,0.4,0.3,0.5,0.6,1s0.4,0.7,0.6,1.2c0.2,0.4,0.4,0.7,0.5,0.9s0.2,0.5,0.4,0.8
	c0.1,0.2,0.2,0.4,0.3,0.6c0.1,0.1,0.1,0.3,0.3,0.5c0.2,0.4,0.4,0.6,0.4,0.7c1.3,1.9,2.7,5.6,2.7,5.6c0.2,0.6,0.6,1.7,1,2.5
	c0.3,0.6,0.5,1,0.5,1c0.2,0.4,0.3,0.5,0.4,0.9c0.2,0.5,0.4,0.9,0.5,1.1c0.3,0.7,0.6,1.4,1.4,2.8c0.3,0.5,0.6,1,0.9,1.8
	c0.1,0.4,0.2,0.4,0.4,1.1c0.5,1.2,0.6,1.2,0.9,1.9c0.4,0.9,0.6,1.7,0.7,2.2s0.1,0.9,0.1,1.2c0,0.6-0.1,1-0.2,1.2s-0.2,0.7-0.6,1.3
	c-0.1,0.1-0.4,0.5-0.8,0.8C-8.1,246.4-8.6,246.6-8.9,246.7z"/>
</svg>
